<?xml version="1.0" encoding="UTF-8"?>
<!DOCTYPE svg PUBLIC "-//W3C//DTD SVG 1.1//EN" "http://www.w3.org/Graphics/SVG/1.1/DTD/svg11.dtd">
<svg xmlns="http://www.w3.org/2000/svg" version="1.1" width="31px" height="31px" style="shape-rendering:geometricPrecision; text-rendering:geometricPrecision; image-rendering:optimizeQuality; fill-rule:evenodd; clip-rule:evenodd" xmlns:xlink="http://www.w3.org/1999/xlink">
<g><path style="opacity:0.664" fill="#0aad0a" d="M 30.5,1.5 C 30.5,2.16667 30.5,2.83333 30.5,3.5C 28.5165,3.38321 26.8498,4.04988 25.5,5.5C 22.9447,11.466 21.278,17.466 20.5,23.5C 22.0453,24.4519 23.712,24.7852 25.5,24.5C 25.5,25.5 25.5,26.5 25.5,27.5C 16.8198,24.8826 8.15313,24.8826 -0.5,27.5C -0.5,26.5 -0.5,25.5 -0.5,24.5C 0.873441,24.6567 2.20677,24.49 3.5,24C 3.63424,18.2423 6.63424,16.409 12.5,18.5C 14.6341,18.4847 16.6341,17.9847 18.5,17C 13.8452,16.5008 9.17853,16.3342 4.5,16.5C 3.51448,12.5568 2.84782,8.55676 2.5,4.5C 9.42217,4.18783 16.2555,4.52117 23,5.5C 24.3184,2.05864 26.8184,0.72531 30.5,1.5 Z M 4.5,6.5 C 10.5092,6.33385 16.5092,6.50051 22.5,7C 16.5845,7.18962 10.7512,7.68962 5,8.5C 4.53566,7.90558 4.36899,7.23891 4.5,6.5 Z M 5.5,9.5 C 10.8437,9.33398 16.1771,9.50065 21.5,10C 16.4473,10.2174 11.4473,10.7174 6.5,11.5C 5.70245,11.0431 5.36912,10.3764 5.5,9.5 Z M 6.5,12.5 C 10.7496,13.2725 15.0829,13.7725 19.5,14C 17.3333,14.1667 15.1667,14.3333 13,14.5C 10.3897,14.4668 8.22299,13.8001 6.5,12.5 Z M 11.5,20.5 C 13.4646,20.9483 13.7979,21.9483 12.5,23.5C 11.6143,22.675 11.281,21.675 11.5,20.5 Z"/></g>
</svg>
